<mxfile host="app.diagrams.net" agent="Mozilla/5.0 (X11; Linux x86_64) AppleWebKit/605.1.15 (KHTML, like Gecko) Version/18.1 Safari/605.1.15" version="26.0.16">
  <diagram name="Page-1" id="3vqN3__bsb4Meno3vTI0">
    <mxGraphModel dx="2074" dy="2318" grid="1" gridSize="10" guides="1" tooltips="1" connect="1" arrows="1" fold="1" page="1" pageScale="1" pageWidth="827" pageHeight="1169" background="#ffffff" math="0" shadow="0">
      <root>
        <mxCell id="0" />
        <mxCell id="1" parent="0" />
        <mxCell id="ojbF__KW1eAKnkWmhrh8-1" value="" style="rounded=0;whiteSpace=wrap;html=1;fillColor=#f8cecc;fillStyle=dashed;opacity=40;strokeColor=#b85450;strokeWidth=3;" parent="1" vertex="1">
          <mxGeometry x="80" y="-80" width="560" height="30" as="geometry" />
        </mxCell>
        <mxCell id="nbNGbUqZniNhtKJeHFpL-93" value="" style="rounded=0;whiteSpace=wrap;html=1;fillColor=#f8cecc;fillStyle=dashed;opacity=40;strokeColor=#b85450;strokeWidth=3;" parent="1" vertex="1">
          <mxGeometry x="400" y="-30" width="240" height="590" as="geometry" />
        </mxCell>
        <mxCell id="nbNGbUqZniNhtKJeHFpL-92" value="" style="rounded=0;whiteSpace=wrap;html=1;fillColor=#f8cecc;fillStyle=dashed;opacity=40;strokeColor=#b85450;strokeWidth=3;" parent="1" vertex="1">
          <mxGeometry x="80" y="-30" width="240" height="590" as="geometry" />
        </mxCell>
        <mxCell id="nbNGbUqZniNhtKJeHFpL-1" value="&lt;font face=&quot;Courier New&quot;&gt;mc_vm_area: 0x1000 - 0x2000&lt;/font&gt;" style="rounded=0;whiteSpace=wrap;html=1;fillColor=#dae8fc;strokeColor=#6c8ebf;" parent="1" vertex="1">
          <mxGeometry x="100" y="100" width="200" height="20" as="geometry" />
        </mxCell>
        <mxCell id="nbNGbUqZniNhtKJeHFpL-23" value="&lt;font face=&quot;Courier New&quot;&gt;mc_&lt;span style=&quot;background-color: transparent; color: light-dark(rgb(0, 0, 0), rgb(255, 255, 255));&quot;&gt;vm_obj: 0x0000 - 0x0000&lt;/span&gt;&lt;/font&gt;&lt;div&gt;&lt;font face=&quot;Courier New&quot;&gt;&lt;span style=&quot;background-color: transparent; color: light-dark(rgb(0, 0, 0), rgb(255, 255, 255));&quot;&gt;&quot;0x0&quot; [pseudo object]&lt;/span&gt;&lt;/font&gt;&lt;/div&gt;" style="rounded=0;whiteSpace=wrap;html=1;fillColor=#f5f5f5;fontColor=#333333;strokeColor=#666666;" parent="1" vertex="1">
          <mxGeometry x="420" y="20" width="200" height="40" as="geometry" />
        </mxCell>
        <mxCell id="nbNGbUqZniNhtKJeHFpL-36" value="&lt;font face=&quot;Courier New&quot;&gt;mc_vm_area: 0x0000 - 0x1000&lt;/font&gt;" style="rounded=0;whiteSpace=wrap;html=1;fillColor=#f5f5f5;fontColor=#333333;strokeColor=#666666;" parent="1" vertex="1">
          <mxGeometry x="100" y="70" width="200" height="20" as="geometry" />
        </mxCell>
        <mxCell id="nbNGbUqZniNhtKJeHFpL-37" value="&lt;font face=&quot;Courier New&quot;&gt;mc_vm_area: 0xE000 - 0xF000&lt;/font&gt;" style="rounded=0;whiteSpace=wrap;html=1;fillColor=#ffe6cc;strokeColor=#d79b00;" parent="1" vertex="1">
          <mxGeometry x="100" y="490" width="200" height="20" as="geometry" />
        </mxCell>
        <mxCell id="nbNGbUqZniNhtKJeHFpL-38" value="&lt;font face=&quot;Courier New&quot;&gt;mc_vm_area: 0xD000 - 0xE000&lt;/font&gt;" style="rounded=0;whiteSpace=wrap;html=1;fillColor=#f5f5f5;fontColor=#333333;strokeColor=#666666;" parent="1" vertex="1">
          <mxGeometry x="100" y="460" width="200" height="20" as="geometry" />
        </mxCell>
        <mxCell id="nbNGbUqZniNhtKJeHFpL-39" value="&lt;font face=&quot;Courier New&quot;&gt;mc_vm_area: 0xC000 - 0xD000&lt;/font&gt;" style="rounded=0;whiteSpace=wrap;html=1;fillColor=#fff2cc;strokeColor=#d6b656;" parent="1" vertex="1">
          <mxGeometry x="100" y="430" width="200" height="20" as="geometry" />
        </mxCell>
        <mxCell id="nbNGbUqZniNhtKJeHFpL-40" value="&lt;font face=&quot;Courier New&quot;&gt;mc_vm_area: 0xB000 - 0xC000&lt;/font&gt;" style="rounded=0;whiteSpace=wrap;html=1;fillColor=#fff2cc;strokeColor=#d6b656;" parent="1" vertex="1">
          <mxGeometry x="100" y="400" width="200" height="20" as="geometry" />
        </mxCell>
        <mxCell id="nbNGbUqZniNhtKJeHFpL-41" value="&lt;font face=&quot;Courier New&quot;&gt;mc_vm_area: 0xA000 - 0xB000&lt;/font&gt;" style="rounded=0;whiteSpace=wrap;html=1;fillColor=#fff2cc;strokeColor=#d6b656;" parent="1" vertex="1">
          <mxGeometry x="100" y="370" width="200" height="20" as="geometry" />
        </mxCell>
        <mxCell id="nbNGbUqZniNhtKJeHFpL-42" value="&lt;font face=&quot;Courier New&quot;&gt;mc_vm_area: 0x9000 - 0xA000&lt;/font&gt;" style="rounded=0;whiteSpace=wrap;html=1;fillColor=#f5f5f5;fontColor=#333333;strokeColor=#666666;" parent="1" vertex="1">
          <mxGeometry x="100" y="340" width="200" height="20" as="geometry" />
        </mxCell>
        <mxCell id="nbNGbUqZniNhtKJeHFpL-43" value="&lt;font face=&quot;Courier New&quot;&gt;mc_vm_area: 0x8000 - 0x9000&lt;/font&gt;" style="rounded=0;whiteSpace=wrap;html=1;fillColor=#f5f5f5;strokeColor=#666666;fontColor=#333333;" parent="1" vertex="1">
          <mxGeometry x="100" y="310" width="200" height="20" as="geometry" />
        </mxCell>
        <mxCell id="nbNGbUqZniNhtKJeHFpL-44" value="&lt;font face=&quot;Courier New&quot;&gt;mc_vm_area: 0x7000 - 0x8000&lt;/font&gt;" style="rounded=0;whiteSpace=wrap;html=1;fillColor=#d5e8d4;strokeColor=#82b366;" parent="1" vertex="1">
          <mxGeometry x="100" y="280" width="200" height="20" as="geometry" />
        </mxCell>
        <mxCell id="nbNGbUqZniNhtKJeHFpL-45" value="&lt;font face=&quot;Courier New&quot;&gt;mc_vm_area: 0x6000 - 0x7000&lt;/font&gt;" style="rounded=0;whiteSpace=wrap;html=1;fillColor=#d5e8d4;strokeColor=#82b366;" parent="1" vertex="1">
          <mxGeometry x="100" y="250" width="200" height="20" as="geometry" />
        </mxCell>
        <mxCell id="nbNGbUqZniNhtKJeHFpL-46" value="&lt;font face=&quot;Courier New&quot;&gt;mc_vm_area: 0x5000 - 0x6000&lt;/font&gt;" style="rounded=0;whiteSpace=wrap;html=1;fillColor=#d5e8d4;strokeColor=#82b366;" parent="1" vertex="1">
          <mxGeometry x="100" y="220" width="200" height="20" as="geometry" />
        </mxCell>
        <mxCell id="nbNGbUqZniNhtKJeHFpL-47" value="&lt;font face=&quot;Courier New&quot;&gt;mc_vm_area: 0x4000 - 0x5000&lt;/font&gt;" style="rounded=0;whiteSpace=wrap;html=1;fillColor=#f5f5f5;fontColor=#333333;strokeColor=#666666;" parent="1" vertex="1">
          <mxGeometry x="100" y="190" width="200" height="20" as="geometry" />
        </mxCell>
        <mxCell id="nbNGbUqZniNhtKJeHFpL-48" value="&lt;font face=&quot;Courier New&quot;&gt;mc_vm_area: 0x3000 - 0x4000&lt;/font&gt;" style="rounded=0;whiteSpace=wrap;html=1;fillColor=#dae8fc;strokeColor=#6c8ebf;" parent="1" vertex="1">
          <mxGeometry x="100" y="160" width="200" height="20" as="geometry" />
        </mxCell>
        <mxCell id="nbNGbUqZniNhtKJeHFpL-49" value="&lt;font face=&quot;Courier New&quot;&gt;mc_vm_area: 0x2000 - 0x3000&lt;/font&gt;" style="rounded=0;whiteSpace=wrap;html=1;fillColor=#dae8fc;strokeColor=#6c8ebf;" parent="1" vertex="1">
          <mxGeometry x="100" y="130" width="200" height="20" as="geometry" />
        </mxCell>
        <mxCell id="nbNGbUqZniNhtKJeHFpL-51" value="&lt;font face=&quot;Courier New&quot;&gt;mc_&lt;span style=&quot;background-color: transparent; color: light-dark(rgb(0, 0, 0), rgb(255, 255, 255));&quot;&gt;vm_obj: 0x1000 - 0x4000&lt;/span&gt;&lt;/font&gt;&lt;div&gt;&lt;div&gt;&lt;font face=&quot;Courier New&quot;&gt;&lt;span style=&quot;background-color: transparent; color: light-dark(rgb(0, 0, 0), rgb(255, 255, 255));&quot;&gt;&quot;/bin/foo&quot;&lt;/span&gt;&lt;/font&gt;&lt;/div&gt;&lt;/div&gt;" style="rounded=0;whiteSpace=wrap;html=1;fillColor=#dae8fc;strokeColor=#6c8ebf;" parent="1" vertex="1">
          <mxGeometry x="420" y="100" width="200" height="80" as="geometry" />
        </mxCell>
        <mxCell id="nbNGbUqZniNhtKJeHFpL-59" value="" style="endArrow=classic;startArrow=classic;html=1;rounded=0;" parent="1" edge="1">
          <mxGeometry width="50" height="50" relative="1" as="geometry">
            <mxPoint x="300" y="109.5" as="sourcePoint" />
            <mxPoint x="420" y="109.5" as="targetPoint" />
          </mxGeometry>
        </mxCell>
        <mxCell id="nbNGbUqZniNhtKJeHFpL-61" value="" style="endArrow=classic;startArrow=classic;html=1;rounded=0;" parent="1" edge="1">
          <mxGeometry width="50" height="50" relative="1" as="geometry">
            <mxPoint x="300" y="139.5" as="sourcePoint" />
            <mxPoint x="420" y="139.5" as="targetPoint" />
          </mxGeometry>
        </mxCell>
        <mxCell id="nbNGbUqZniNhtKJeHFpL-62" value="" style="endArrow=classic;startArrow=classic;html=1;rounded=0;" parent="1" edge="1">
          <mxGeometry width="50" height="50" relative="1" as="geometry">
            <mxPoint x="300" y="169.5" as="sourcePoint" />
            <mxPoint x="420" y="169.5" as="targetPoint" />
          </mxGeometry>
        </mxCell>
        <mxCell id="nbNGbUqZniNhtKJeHFpL-63" value="&lt;font face=&quot;Courier New&quot;&gt;mc_&lt;span style=&quot;background-color: transparent; color: light-dark(rgb(0, 0, 0), rgb(255, 255, 255));&quot;&gt;vm_obj: 0x5000 - 0x8000&lt;/span&gt;&lt;/font&gt;&lt;div&gt;&lt;font face=&quot;Courier New&quot;&gt;&lt;span style=&quot;background-color: transparent; color: light-dark(rgb(0, 0, 0), rgb(255, 255, 255));&quot;&gt;&quot;/lib/bar.so&quot;&lt;/span&gt;&lt;/font&gt;&lt;/div&gt;" style="rounded=0;whiteSpace=wrap;html=1;fillColor=#d5e8d4;strokeColor=#82b366;" parent="1" vertex="1">
          <mxGeometry x="420" y="220" width="200" height="80" as="geometry" />
        </mxCell>
        <mxCell id="nbNGbUqZniNhtKJeHFpL-64" value="&lt;font face=&quot;Courier New&quot;&gt;mc_&lt;span style=&quot;background-color: transparent; color: light-dark(rgb(0, 0, 0), rgb(255, 255, 255));&quot;&gt;vm_obj: 0xA000 - 0xD000&lt;/span&gt;&lt;/font&gt;&lt;div&gt;&lt;font face=&quot;Courier New&quot;&gt;&lt;span style=&quot;background-color: transparent; color: light-dark(rgb(0, 0, 0), rgb(255, 255, 255));&quot;&gt;&quot;/lib/ld-linux.so&quot;&lt;/span&gt;&lt;/font&gt;&lt;/div&gt;" style="rounded=0;whiteSpace=wrap;html=1;fillColor=#fff2cc;strokeColor=#d6b656;" parent="1" vertex="1">
          <mxGeometry x="420" y="370" width="200" height="80" as="geometry" />
        </mxCell>
        <mxCell id="nbNGbUqZniNhtKJeHFpL-65" value="&lt;font face=&quot;Courier New&quot;&gt;mc_&lt;span style=&quot;background-color: transparent; color: light-dark(rgb(0, 0, 0), rgb(255, 255, 255));&quot;&gt;vm_obj: 0xE000 - 0xF000&lt;/span&gt;&lt;/font&gt;&lt;div&gt;&lt;font face=&quot;Courier New&quot;&gt;&lt;span style=&quot;background-color: transparent; color: light-dark(rgb(0, 0, 0), rgb(255, 255, 255));&quot;&gt;&quot;[stack]&quot;&lt;/span&gt;&lt;/font&gt;&lt;/div&gt;" style="rounded=0;whiteSpace=wrap;html=1;fillColor=#ffe6cc;strokeColor=#d79b00;" parent="1" vertex="1">
          <mxGeometry x="420" y="490" width="200" height="50" as="geometry" />
        </mxCell>
        <mxCell id="nbNGbUqZniNhtKJeHFpL-72" value="" style="endArrow=classic;html=1;rounded=0;dashed=1;" parent="1" edge="1">
          <mxGeometry width="50" height="50" relative="1" as="geometry">
            <mxPoint x="500" y="350" as="sourcePoint" />
            <mxPoint x="500" y="300" as="targetPoint" />
          </mxGeometry>
        </mxCell>
        <mxCell id="nbNGbUqZniNhtKJeHFpL-73" value="" style="endArrow=classic;html=1;rounded=0;dashed=1;" parent="1" edge="1">
          <mxGeometry width="50" height="50" relative="1" as="geometry">
            <mxPoint x="460" y="80" as="sourcePoint" />
            <mxPoint x="460" y="60" as="targetPoint" />
          </mxGeometry>
        </mxCell>
        <mxCell id="nbNGbUqZniNhtKJeHFpL-74" value="" style="endArrow=classic;html=1;rounded=0;dashed=1;" parent="1" edge="1">
          <mxGeometry width="50" height="50" relative="1" as="geometry">
            <mxPoint x="460" y="200" as="sourcePoint" />
            <mxPoint x="460" y="180" as="targetPoint" />
          </mxGeometry>
        </mxCell>
        <mxCell id="nbNGbUqZniNhtKJeHFpL-75" value="" style="endArrow=classic;html=1;rounded=0;dashed=1;" parent="1" edge="1">
          <mxGeometry width="50" height="50" relative="1" as="geometry">
            <mxPoint x="460" y="320" as="sourcePoint" />
            <mxPoint x="460" y="300" as="targetPoint" />
          </mxGeometry>
        </mxCell>
        <mxCell id="nbNGbUqZniNhtKJeHFpL-76" value="" style="endArrow=classic;html=1;rounded=0;dashed=1;" parent="1" edge="1">
          <mxGeometry width="50" height="50" relative="1" as="geometry">
            <mxPoint x="460" y="470" as="sourcePoint" />
            <mxPoint x="460" y="450" as="targetPoint" />
          </mxGeometry>
        </mxCell>
        <mxCell id="nbNGbUqZniNhtKJeHFpL-77" value="" style="endArrow=classic;html=1;rounded=0;dashed=1;" parent="1" edge="1">
          <mxGeometry width="50" height="50" relative="1" as="geometry">
            <mxPoint x="460" y="79.5" as="sourcePoint" />
            <mxPoint x="300" y="79.5" as="targetPoint" />
          </mxGeometry>
        </mxCell>
        <mxCell id="nbNGbUqZniNhtKJeHFpL-79" value="" style="endArrow=classic;html=1;rounded=0;dashed=1;" parent="1" edge="1">
          <mxGeometry width="50" height="50" relative="1" as="geometry">
            <mxPoint x="460" y="319.5" as="sourcePoint" />
            <mxPoint x="300" y="319.5" as="targetPoint" />
          </mxGeometry>
        </mxCell>
        <mxCell id="nbNGbUqZniNhtKJeHFpL-80" value="" style="endArrow=classic;html=1;rounded=0;dashed=1;" parent="1" edge="1">
          <mxGeometry width="50" height="50" relative="1" as="geometry">
            <mxPoint x="460" y="469.5" as="sourcePoint" />
            <mxPoint x="300" y="469.5" as="targetPoint" />
          </mxGeometry>
        </mxCell>
        <mxCell id="nbNGbUqZniNhtKJeHFpL-81" value="" style="endArrow=classic;html=1;rounded=0;dashed=1;" parent="1" edge="1">
          <mxGeometry width="50" height="50" relative="1" as="geometry">
            <mxPoint x="460" y="199.5" as="sourcePoint" />
            <mxPoint x="300" y="199.5" as="targetPoint" />
          </mxGeometry>
        </mxCell>
        <mxCell id="nbNGbUqZniNhtKJeHFpL-82" value="" style="endArrow=classic;html=1;rounded=0;dashed=1;" parent="1" edge="1">
          <mxGeometry width="50" height="50" relative="1" as="geometry">
            <mxPoint x="500" y="349.5" as="sourcePoint" />
            <mxPoint x="300" y="349.5" as="targetPoint" />
          </mxGeometry>
        </mxCell>
        <mxCell id="nbNGbUqZniNhtKJeHFpL-83" value="" style="endArrow=classic;startArrow=classic;html=1;rounded=0;" parent="1" edge="1">
          <mxGeometry width="50" height="50" relative="1" as="geometry">
            <mxPoint x="300" y="229.5" as="sourcePoint" />
            <mxPoint x="420" y="229.5" as="targetPoint" />
          </mxGeometry>
        </mxCell>
        <mxCell id="nbNGbUqZniNhtKJeHFpL-84" value="" style="endArrow=classic;startArrow=classic;html=1;rounded=0;" parent="1" edge="1">
          <mxGeometry width="50" height="50" relative="1" as="geometry">
            <mxPoint x="300" y="259.5" as="sourcePoint" />
            <mxPoint x="420" y="259.5" as="targetPoint" />
          </mxGeometry>
        </mxCell>
        <mxCell id="nbNGbUqZniNhtKJeHFpL-85" value="" style="endArrow=classic;startArrow=classic;html=1;rounded=0;" parent="1" edge="1">
          <mxGeometry width="50" height="50" relative="1" as="geometry">
            <mxPoint x="300" y="289.5" as="sourcePoint" />
            <mxPoint x="420" y="289.5" as="targetPoint" />
          </mxGeometry>
        </mxCell>
        <mxCell id="nbNGbUqZniNhtKJeHFpL-86" value="" style="endArrow=classic;startArrow=classic;html=1;rounded=0;" parent="1" edge="1">
          <mxGeometry width="50" height="50" relative="1" as="geometry">
            <mxPoint x="300" y="379.5" as="sourcePoint" />
            <mxPoint x="420" y="379.5" as="targetPoint" />
          </mxGeometry>
        </mxCell>
        <mxCell id="nbNGbUqZniNhtKJeHFpL-87" value="" style="endArrow=classic;startArrow=classic;html=1;rounded=0;" parent="1" edge="1">
          <mxGeometry width="50" height="50" relative="1" as="geometry">
            <mxPoint x="300" y="409.5" as="sourcePoint" />
            <mxPoint x="420" y="409.5" as="targetPoint" />
          </mxGeometry>
        </mxCell>
        <mxCell id="nbNGbUqZniNhtKJeHFpL-88" value="" style="endArrow=classic;startArrow=classic;html=1;rounded=0;" parent="1" edge="1">
          <mxGeometry width="50" height="50" relative="1" as="geometry">
            <mxPoint x="300" y="439.5" as="sourcePoint" />
            <mxPoint x="420" y="439.5" as="targetPoint" />
          </mxGeometry>
        </mxCell>
        <mxCell id="nbNGbUqZniNhtKJeHFpL-89" value="" style="endArrow=classic;startArrow=classic;html=1;rounded=0;" parent="1" edge="1">
          <mxGeometry width="50" height="50" relative="1" as="geometry">
            <mxPoint x="300" y="499.5" as="sourcePoint" />
            <mxPoint x="420" y="499.5" as="targetPoint" />
          </mxGeometry>
        </mxCell>
        <mxCell id="nbNGbUqZniNhtKJeHFpL-91" value="&lt;font style=&quot;font-size: 18px;&quot; face=&quot;Courier New&quot;&gt;&lt;b style=&quot;&quot;&gt;mc_vm_map&lt;/b&gt;&lt;/font&gt;" style="text;html=1;align=center;verticalAlign=middle;whiteSpace=wrap;rounded=0;fillColor=#f8cecc;strokeColor=#b85450;strokeWidth=0;" parent="1" vertex="1">
          <mxGeometry x="80" y="-80" width="560" height="30" as="geometry" />
        </mxCell>
        <mxCell id="nbNGbUqZniNhtKJeHFpL-95" value="&lt;font style=&quot;font-size: 14px;&quot; face=&quot;Courier New&quot;&gt;&lt;b&gt;mc_vm_map-&amp;gt;vm_areas&lt;/b&gt;&lt;/font&gt;" style="text;html=1;align=center;verticalAlign=middle;whiteSpace=wrap;rounded=0;fillColor=#f8cecc;strokeColor=#b85450;strokeWidth=0;" parent="1" vertex="1">
          <mxGeometry x="80" y="-30" width="240" height="30" as="geometry" />
        </mxCell>
        <mxCell id="nbNGbUqZniNhtKJeHFpL-97" value="&lt;font style=&quot;font-size: 14px;&quot; face=&quot;Courier New&quot;&gt;&lt;b&gt;mc_vm_map-&amp;gt;vm_objs&lt;/b&gt;&lt;/font&gt;" style="text;html=1;align=center;verticalAlign=middle;whiteSpace=wrap;rounded=0;fillColor=#f8cecc;strokeColor=#b85450;strokeWidth=0;" parent="1" vertex="1">
          <mxGeometry x="400" y="-30" width="240" height="30" as="geometry" />
        </mxCell>
        <mxCell id="ojbF__KW1eAKnkWmhrh8-2" value="" style="endArrow=classic;html=1;rounded=0;" parent="1" edge="1">
          <mxGeometry width="50" height="50" relative="1" as="geometry">
            <mxPoint x="199.5" y="-50" as="sourcePoint" />
            <mxPoint x="199.5" y="-30" as="targetPoint" />
          </mxGeometry>
        </mxCell>
        <mxCell id="ojbF__KW1eAKnkWmhrh8-3" value="" style="endArrow=classic;html=1;rounded=0;" parent="1" edge="1">
          <mxGeometry width="50" height="50" relative="1" as="geometry">
            <mxPoint x="519.5" y="-50" as="sourcePoint" />
            <mxPoint x="519.5" y="-30" as="targetPoint" />
          </mxGeometry>
        </mxCell>
      </root>
    </mxGraphModel>
  </diagram>
</mxfile>
